# xmcd
#
# Track frame offsets: 
#        183
#        12865
#        27305
#        31065
#        55535
#        76235
#        92860
#        111595
#        135795
#        147545
#        183285
#
# Disc length: 2610 seconds
#
# Revision: 1
# Processed by: cddbd v1.5.2PL0 Copyright (c) Steve Scherf et al.
# Submitted via: ExactAudioCopy v0.99pb5
#
DISCID=840a300b
DTITLE=Kenny Drew - Duo
DYEAR=1973
DGENRE=Jazz
TTITLE0=I Skovens Dybe Stille No
TTITLE1=Come Summer
TTITLE2=Lullaby
TTITLE3=Kristine
TTITLE4=Serenity
TTITLE5=Det Var En Lordag Aften
TTITLE6=Do You Know What it Means To Miss new Orleans
TTITLE7=Wawe
TTITLE8=Duo Trip
TTITLE9=Hush-A-Bye
TTITLE10=I Skovens Dybe Stille No
EXTD=YEAR: 1973
EXTT0=
EXTT1=
EXTT2=
EXTT3=
EXTT4=
EXTT5=
EXTT6=
EXTT7=
EXTT8=
EXTT9=
EXTT10=
PLAYORDER=
